<?xml version="1.0" encoding="UTF-8"?>
<svg width="81px" height="95px" viewBox="0 0 81 95" version="1.1" xmlns="http://www.w3.org/2000/svg" xmlns:xlink="http://www.w3.org/1999/xlink">
    <!-- Generator: Sketch 52.5 (67469) - http://www.bohemiancoding.com/sketch -->
    <title>Beer</title>
    <desc>Created with Sketch.</desc>
    <g id="Beer" stroke="none" stroke-width="1" fill="none" fill-rule="evenodd">
        <g id="Group">
            <path d="M57.15,28.813 C57.22,24.874 61.39,25.326 64.21,25.326 C67.72,25.326 70.57,27.975 70.57,31.231 C70.57,46.343 71.43,51.609 66.8,56.12 C63.88,58.97 59.76,60.504 55.69,59.213 C55.86,63.546 56.14,67.424 56.53,71.12 C58.01,69.476 60.35,67.407 63.63,66.015 C76.98,61.205 77.13,50.324 77.12,49.863 L77.12,26.581 C77.12,22.217 73.17,18.666 68.3,18.666 L55.47,18.666 C55.49,22.432 55.55,26.28 55.54,29.818 C56.35,29.756 57.14,29.514 57.15,28.813" id="Fill-207"></path>
            <path d="M5.47,91.56 C57.89,91.56 54.72,91.955 55.76,90.639 C56.22,90.044 56.39,89.278 56.21,88.537 C50.25,63.982 52.9,44.612 52.01,3.088 L7.62,3.088 C6.82,41.428 9.34,62.914 3.12,88.537 C2.748,90.079 3.9,91.56 5.47,91.56" id="Fill-208"></path>
            <path d="M9.44,75.225 C11.61,58.267 10.89,39.524 11.01,16.432 L48.62,16.416 C48.58,49.516 48.44,62.327 49.93,75.034 C40.47,80.044 17.99,79.269 9.44,75.225" id="Fill-209" fill="#FFFFFF"></path>
            <path d="M77.12,49.863 C77.13,50.324 76.98,61.205 63.63,66.015 C60.35,67.407 58.01,69.476 56.53,71.12 C56.14,67.424 55.86,63.546 55.69,59.213 C59.76,60.504 63.88,58.97 66.8,56.12 C71.43,51.609 70.57,46.343 70.57,31.231 C70.57,27.975 67.72,25.326 64.21,25.326 C61.39,25.326 57.22,24.874 57.15,28.813 C57.14,29.514 56.35,29.756 55.54,29.818 C55.55,26.28 55.49,22.432 55.47,18.666 L68.3,18.666 C73.17,18.666 77.12,22.217 77.12,26.581 L77.12,49.863 Z M55.76,90.639 C54.72,91.955 57.89,91.56 5.47,91.56 C3.9,91.56 2.748,90.079 3.12,88.537 C9.34,62.914 6.82,41.428 7.62,3.088 L52.01,3.088 C52.9,44.612 50.25,63.982 56.21,88.537 C56.39,89.278 56.22,90.044 55.76,90.639 Z M55.11,32.727 C58.7,32.701 60.01,30.719 60.05,28.862 C60.06,28.035 60.97,28.219 64.21,28.219 C66.12,28.219 67.68,29.57 67.68,31.231 C67.68,46.005 68.42,50.504 64.78,54.048 C62.14,56.62 58.57,57.701 55.17,55.858 C54.97,48.629 55.05,40.847 55.11,32.727 Z M68.3,15.773 L55.06,15.773 C55.06,13.566 55.02,8.099 54.87,1.811 C54.85,0.913 54.12,0.196 53.22,0.196 L6.41,0.196 C5.51,0.196 4.77,0.913 4.75,1.811 C4.04,33.021 5.66,53.941 2.883,74.344 C1.009,88.113 -1.21,89.233 1.302,92.427 C2.314,93.714 3.83,94.452 5.47,94.452 C10.58,94.452 48.74,94.452 53.86,94.452 C57.31,94.452 59.84,91.219 59.02,87.855 C58.04,83.802 57.28,79.774 56.69,75.604 C57.52,74.942 59.23,71.042 64.72,68.696 C79.93,63.191 80.02,50.39 80.02,49.848 L80.02,26.581 C80.02,20.622 74.76,15.773 68.3,15.773 Z" id="Fill-210" fill="#FFFFFF"></path>
        </g>
    </g>
</svg>