<?xml version="1.0" encoding="UTF-8"?>
<svg width="58px" height="59px" viewBox="0 0 58 59" version="1.1" xmlns="http://www.w3.org/2000/svg" xmlns:xlink="http://www.w3.org/1999/xlink">
    <!-- Generator: Sketch 52.5 (67469) - http://www.bohemiancoding.com/sketch -->
    <title>Cognac</title>
    <desc>Created with Sketch.</desc>
    <g id="Cognac" stroke="none" stroke-width="1" fill="none" fill-rule="evenodd">
        <g id="Group">
            <path d="M4.854,21.025 C-2.372,31.878 11.761,43.335 11.905,43.45 C12.236,43.713 12.427,44.113 12.427,44.535 C12.407,53.587 13.637,54.915 13.751,55.018 C13.889,55.08 15.587,55.706 23.933,52.197 C24.105,52.125 24.287,52.088 24.469,52.088 C24.699,52.088 24.929,52.146 25.135,52.258 C25.794,52.619 41.335,60.946 48.544,50.117 C54.21,41.608 54.917,23.765 55.005,19.923 L30.22,3.421 C26.709,4.982 10.52,12.515 4.854,21.025" id="Fill-160"></path>
            <path d="M49.083,40.766 C48.279,43.569 47.267,46.11 45.994,48.023 C44.117,50.841 41.487,52.153 37.719,52.153 C31.309,52.153 23.617,48.222 19.816,45.719 C17.37,44.109 15.262,41.86 13.943,40.766 L49.083,40.766" id="Fill-161" fill="#FFFFFF"></path>
            <path d="M24.469,52.088 C24.699,52.088 24.929,52.146 25.135,52.258 C25.794,52.619 41.335,60.946 48.544,50.117 C54.21,41.608 54.917,23.765 55.005,19.923 L30.22,3.421 C26.709,4.982 10.52,12.515 4.854,21.025 C-2.372,31.878 11.761,43.335 11.905,43.45 C12.236,43.713 12.427,44.113 12.427,44.535 C12.407,53.587 13.637,54.915 13.751,55.018 C13.889,55.08 15.587,55.706 23.933,52.197 C24.105,52.125 24.288,52.088 24.469,52.088 Z M37.776,58.341 C31.833,58.342 26.231,55.879 24.414,54.996 C15.845,58.535 13.39,58.106 12.216,57.323 C11.04,56.54 9.697,54.441 9.658,45.171 C6.94,42.774 -5.175,31.09 2.548,19.491 C9.35,9.276 28.989,0.923 29.822,0.573 C30.248,0.393 30.74,0.44 31.126,0.696 L57.168,18.037 C57.555,18.295 57.787,18.729 57.786,19.194 C57.783,20.097 57.65,41.438 50.85,51.652 C47.431,56.787 42.495,58.341 37.776,58.341 Z" id="Fill-162" fill="#FFFFFF"></path>
        </g>
    </g>
</svg>