<?xml version="1.0" encoding="UTF-8"?>
<svg width="70px" height="98px" viewBox="0 0 70 98" version="1.1" xmlns="http://www.w3.org/2000/svg" xmlns:xlink="http://www.w3.org/1999/xlink">
    <!-- Generator: Sketch 52.5 (67469) - http://www.bohemiancoding.com/sketch -->
    <title>Margarita</title>
    <desc>Created with Sketch.</desc>
    <g id="Margarita" stroke="none" stroke-width="1" fill="none" fill-rule="evenodd">
        <g id="Group">
            <path d="M18.01,22.754 C20.82,23.732 22.72,26 22.84,28.531 C23.25,36.975 27.58,40.304 30.12,41.536 C32.97,42.921 33.93,45.028 33.92,49.89 L33.86,83.673 C33.86,87.662 30.78,90.799 24.98,92.743 C23.16,93.35 21.22,93.727 18.03,94.088 C17.75,94.121 17.53,94.168 17.36,94.225 L52.64,94.287 C52.48,94.23 52.26,94.181 51.97,94.148 C48.79,93.776 46.84,93.391 45.03,92.779 C39.23,90.814 36.17,87.666 36.18,83.678 L36.24,49.894 C36.24,45.032 37.21,42.928 40.07,41.554 C42.61,40.33 46.95,37.017 47.39,28.574 C47.53,26.043 49.43,23.782 52.24,22.814 C65.31,18.317 65.84,14.481 66.7,3.413 L3.63,3.302 C4.44,14.373 4.96,18.211 18.01,22.754" id="Fill-316"></path>
            <path d="M38.56,38.546 C36.36,39.616 33.83,39.611 31.64,38.534 C31.62,38.526 31.61,38.519 31.59,38.512 C29.3,37.402 26.51,34.742 26.2,28.366 C26.01,24.459 23.23,21.009 19.12,19.578 C9.49,16.228 8.02,14.263 7.28,6.671 L63.04,6.769 C62.26,14.358 60.78,16.318 51.15,19.634 C47.03,21.051 44.24,24.491 44.04,28.398 C43.7,34.772 40.9,37.422 38.61,38.523 C38.59,38.531 38.58,38.539 38.56,38.546 Z M34.39,90.892 C34.61,90.644 34.82,90.395 35.01,90.145 C35.2,90.395 35.4,90.645 35.62,90.895 L34.39,90.892 Z" id="Fill-317" fill="#FFFFFF"></path>
            <path d="M17.36,94.225 L52.64,94.287 C52.48,94.23 52.26,94.181 51.97,94.148 C48.79,93.776 46.84,93.391 45.03,92.779 C39.23,90.814 36.17,87.666 36.18,83.678 L36.24,49.894 C36.24,45.032 37.21,42.928 40.07,41.554 C42.61,40.33 46.95,37.017 47.39,28.574 C47.53,26.043 49.43,23.782 52.24,22.814 C65.31,18.317 65.84,14.481 66.7,3.413 L3.63,3.302 C4.44,14.373 4.96,18.211 18.01,22.754 C20.82,23.732 22.72,26 22.84,28.531 C23.25,36.975 27.58,40.304 30.12,41.536 C32.97,42.921 33.93,45.028 33.92,49.89 L33.86,83.673 C33.86,87.662 30.78,90.799 24.98,92.743 C23.16,93.35 21.22,93.727 18.03,94.088 C17.75,94.121 17.53,94.168 17.36,94.225 Z M53.59,97.058 L16.41,96.993 C15.64,96.991 14.88,96.622 14.44,96.03 C14.01,95.457 13.89,94.738 14.09,94.005 C14.4,92.941 15.27,91.614 17.72,91.337 C20.7,90.999 22.48,90.657 24.1,90.118 C27.29,89.049 31.09,87.063 31.09,83.669 L31.15,49.885 C31.16,45.12 30.17,44.638 28.91,44.028 C25.82,42.528 20.56,38.538 20.07,28.667 C20,27.077 18.53,25.864 17.1,25.369 C2.08,20.142 1.69,14.728 0.82,2.867 L0.75,2.017 C0.73,1.633 0.86,1.253 1.12,0.972 C1.38,0.689 1.75,0.529 2.14,0.53 L68.2,0.646 C68.58,0.647 68.95,0.808 69.21,1.091 C69.47,1.374 69.6,1.754 69.57,2.138 L69.51,2.988 C68.6,14.846 68.18,20.258 53.14,25.432 C51.72,25.922 50.24,27.13 50.16,28.72 C49.64,38.589 44.37,42.56 41.27,44.05 C40.01,44.655 39.01,45.134 39,49.899 L38.95,83.683 C38.94,87.077 42.74,89.077 45.92,90.156 C47.53,90.701 49.32,91.049 52.29,91.397 C54.74,91.683 55.61,93.014 55.91,94.08 C56.12,94.813 55.99,95.531 55.56,96.103 C55.11,96.693 54.35,97.06 53.59,97.058 Z" id="Fill-318" fill="#FFFFFF"></path>
        </g>
    </g>
</svg>