<?xml version="1.0" encoding="UTF-8"?>
<svg width="27px" height="47px" viewBox="0 0 27 47" version="1.1" xmlns="http://www.w3.org/2000/svg" xmlns:xlink="http://www.w3.org/1999/xlink">
    <!-- Generator: Sketch 52.5 (67469) - http://www.bohemiancoding.com/sketch -->
    <title>Shooter</title>
    <desc>Created with Sketch.</desc>
    <g id="Shooter" stroke="none" stroke-width="1" fill="none" fill-rule="evenodd">
        <g id="Group">
            <path d="M6.71,43.572 L20.55,43.572 C21.88,18.476 22.04,16.237 23.73,3.171 L3.54,3.171 C5.22,16.237 5.39,18.476 6.71,43.572" id="Fill-27"></path>
            <path d="M6.64,8.783 C7.53,17.036 8.22,25.911 8.62,32.141 C8.76,34.409 11.13,35.09 13.59,35.091 C16.04,35.09 18.41,34.409 18.56,32.141 C18.95,25.911 19.65,17.036 20.53,8.783 L6.64,8.783" id="Fill-28" fill="#FFFFFF"></path>
            <path d="M6.71,43.572 L20.55,43.572 C21.88,18.476 22.04,16.237 23.73,3.171 L3.54,3.171 C5.22,16.237 5.39,18.476 6.71,43.572 Z M21.87,46.341 L5.4,46.341 C4.66,46.341 4.05,45.765 4.01,45.03 C2.58,17.799 2.48,16.592 0.59,1.964 C0.54,1.569 0.66,1.171 0.92,0.872 C1.18,0.573 1.56,0.401 1.96,0.401 L25.3,0.401 C25.7,0.401 26.08,0.573 26.34,0.872 C26.61,1.171 26.73,1.569 26.68,1.964 C24.78,16.592 24.68,17.799 23.25,45.03 C23.21,45.765 22.6,46.341 21.87,46.341 Z" id="Fill-29" fill="#FFFFFF"></path>
        </g>
    </g>
</svg>