<?xml version="1.0" encoding="UTF-8"?>
<svg width="39px" height="103px" viewBox="0 0 39 103" version="1.1" xmlns="http://www.w3.org/2000/svg" xmlns:xlink="http://www.w3.org/1999/xlink">
    <!-- Generator: Sketch 52.5 (67469) - http://www.bohemiancoding.com/sketch -->
    <title>Wine</title>
    <desc>Created with Sketch.</desc>
    <g id="Wine" stroke="none" stroke-width="1" fill="none" fill-rule="evenodd">
        <g id="Group">
            <path d="M3.459,99.27 C3.676,99.115 4.035,98.977 4.643,98.929 C9.261,98.561 18.87,97.794 18.87,90.638 L18.87,66.501 C18.87,60.089 18.59,56.32 17.234,53.456 C16.491,51.885 14.452,49.98 12.82,49.012 C7.456,45.483 4.38,38.917 4.38,30.953 C4.38,19.815 7.662,7.015 8.639,3.453 L19.531,3.463 L30.423,3.453 C31.401,7.015 34.682,19.815 34.682,30.953 C34.682,38.917 31.606,45.483 26.242,49.012 C24.61,49.98 22.571,51.885 21.828,53.456 C20.472,56.32 20.193,60.089 20.193,66.501 L20.193,90.638 C20.193,97.794 29.801,98.561 34.419,98.929 C35.027,98.977 35.386,99.115 35.603,99.27 L3.459,99.27" id="Fill-379"></path>
            <path d="M7.765,29.276 C7.749,29.839 7.74,30.398 7.74,30.954 C7.74,37.717 10.24,43.254 14.601,46.161 C16.089,47.029 17.793,47.487 19.531,47.487 C21.267,47.487 22.967,47.03 24.455,46.164 C28.819,43.258 31.32,37.72 31.32,30.954 C31.32,30.398 31.312,29.839 31.295,29.276 L7.765,29.276" id="Fill-380" fill="#FFFFFF"></path>
            <path d="M3.459,99.27 C3.676,99.115 4.035,98.977 4.643,98.929 C9.261,98.561 18.87,97.794 18.87,90.638 L18.87,66.501 C18.87,60.089 18.59,56.32 17.234,53.456 C16.491,51.885 14.452,49.98 12.82,49.012 C7.456,45.483 4.38,38.917 4.38,30.953 C4.38,19.815 7.662,7.015 8.639,3.453 L19.531,3.463 L30.423,3.453 C31.401,7.015 34.682,19.815 34.682,30.953 C34.682,38.917 31.606,45.483 26.242,49.012 C24.61,49.98 22.571,51.885 21.828,53.456 C20.472,56.32 20.193,60.089 20.193,66.501 L20.193,90.638 C20.193,97.794 29.801,98.561 34.419,98.929 C35.027,98.977 35.386,99.115 35.603,99.27 L3.459,99.27 Z M19.531,0.675 L7.657,0.664 L7.656,0.664 C7.085,0.664 6.578,1.052 6.4,1.625 C6.354,1.776 1.739,17.514 1.739,30.953 C1.739,39.987 5.331,47.476 11.595,51.497 C15.666,54.109 16.228,55.932 16.228,66.501 L16.228,90.638 C16.228,95.209 8.269,95.844 4.438,96.15 C1.724,96.364 0.861,98.001 0.588,98.957 C0.377,99.693 0.495,100.455 0.911,101.046 C1.357,101.68 2.106,102.058 2.916,102.058 L36.146,102.058 C36.956,102.058 37.706,101.68 38.151,101.046 C38.567,100.455 38.685,99.693 38.474,98.957 C38.202,98.001 37.338,96.364 34.624,96.15 C30.793,95.844 22.834,95.209 22.834,90.638 L22.834,66.501 C22.834,55.932 23.396,54.109 27.467,51.497 C33.731,47.476 37.323,39.987 37.323,30.953 C37.323,17.514 32.709,1.776 32.662,1.625 C32.484,1.052 31.978,0.664 31.407,0.664 L31.405,0.664 L19.531,0.675 Z" id="Fill-381" fill="#FFFFFF"></path>
        </g>
    </g>
</svg>